<svg width="24" height="24" viewBox="0 0 24 24" fill="none" xmlns="http://www.w3.org/2000/svg">
<mask id="mask0_51_604" style="mask-type:alpha" maskUnits="userSpaceOnUse" x="0" y="0" width="24" height="24">
<path fill-rule="evenodd" clip-rule="evenodd" d="M11.9997 2.1001C9.77452 2.1001 7.94513 2.88789 6.68764 4.37442C5.44752 5.84043 4.84978 7.88318 4.84978 10.2501L4.84978 11.0001C4.84978 13.4652 4.16655 14.9249 3.19343 15.8682C2.81189 16.238 2.77229 16.7498 2.90867 17.1264C3.04738 17.5093 3.42748 17.9 3.99934 17.9H20.0002C20.572 17.9 20.9521 17.5093 21.0908 17.1264C21.2272 16.7498 21.1876 16.238 20.8061 15.8682C19.8329 14.9249 19.1497 13.4652 19.1497 11.0001L19.1497 10.2501C19.1497 7.88318 18.552 5.84043 17.3118 4.37442C16.0544 2.88789 14.225 2.1001 11.9997 2.1001Z" fill="#171719"/>
<path d="M9.09988 20.1V21.9H14.8999V20.1H9.09988Z" fill="#171719"/>
<path fill-rule="evenodd" clip-rule="evenodd" d="M11.9997 2.1001C9.77452 2.1001 7.94513 2.88789 6.68764 4.37442C5.44752 5.84043 4.84978 7.88318 4.84978 10.2501L4.84978 11.0001C4.84978 13.4652 4.16655 14.9249 3.19343 15.8682C2.81189 16.238 2.77229 16.7498 2.90867 17.1264C3.04738 17.5093 3.42748 17.9 3.99934 17.9H20.0002C20.572 17.9 20.9521 17.5093 21.0908 17.1264C21.2272 16.7498 21.1876 16.238 20.8061 15.8682C19.8329 14.9249 19.1497 13.4652 19.1497 11.0001L19.1497 10.2501C19.1497 7.88318 18.552 5.84043 17.3118 4.37442C16.0544 2.88789 14.225 2.1001 11.9997 2.1001Z" stroke="#171719"/>
<path d="M9.09988 20.1V21.9H14.8999V20.1H9.09988Z" stroke="#171719"/>
</mask>
<g mask="url(#mask0_51_604)">
<rect width="23.9999" height="23.9999" fill="#B8BFC6"/>
</g>
</svg>
