<svg width="18" height="18" viewBox="0 0 18 18" fill="none" xmlns="http://www.w3.org/2000/svg">
<mask id="mask0_307_2254" style="mask-type:alpha" maskUnits="userSpaceOnUse" x="0" y="0" width="18" height="18">
<path fill-rule="evenodd" clip-rule="evenodd" d="M8.99994 1.57422C7.33102 1.57422 5.95897 2.16506 5.01585 3.27996C4.08575 4.37948 3.63745 5.91154 3.63745 7.68672L3.63745 8.24922C3.63745 10.0981 3.12502 11.1928 2.39518 11.9003C2.10903 12.1777 2.07932 12.5615 2.18161 12.844C2.28564 13.1312 2.57072 13.4242 2.99961 13.4242H15.0003C15.4292 13.4242 15.7142 13.1312 15.8183 12.844C15.9206 12.5615 15.8909 12.1777 15.6047 11.9003C14.8749 11.1928 14.3624 10.0981 14.3624 8.24922L14.3624 7.68672C14.3624 5.91154 13.9141 4.37948 12.984 3.27997C12.0409 2.16506 10.6689 1.57422 8.99994 1.57422Z" fill="#171719"/>
<path d="M6.82504 15.0742V16.4242H11.175V15.0742H6.82504Z" fill="#171719"/>
<path fill-rule="evenodd" clip-rule="evenodd" d="M8.99994 1.57422C7.33102 1.57422 5.95897 2.16506 5.01585 3.27996C4.08575 4.37948 3.63745 5.91154 3.63745 7.68672L3.63745 8.24922C3.63745 10.0981 3.12502 11.1928 2.39518 11.9003C2.10903 12.1777 2.07932 12.5615 2.18161 12.844C2.28564 13.1312 2.57072 13.4242 2.99961 13.4242H15.0003C15.4292 13.4242 15.7142 13.1312 15.8183 12.844C15.9206 12.5615 15.8909 12.1777 15.6047 11.9003C14.8749 11.1928 14.3624 10.0981 14.3624 8.24922L14.3624 7.68672C14.3624 5.91154 13.9141 4.37948 12.984 3.27997C12.0409 2.16506 10.6689 1.57422 8.99994 1.57422Z" stroke="#171719"/>
<path d="M6.82504 15.0742V16.4242H11.175V15.0742H6.82504Z" stroke="#171719"/>
</mask>
<g mask="url(#mask0_307_2254)">
<rect width="18" height="18" fill="#5F6163"/>
</g>
</svg>
