<svg width="18" height="20" viewBox="0 0 24 24" fill="none" xmlns="http://www.w3.org/2000/svg">
<path d="M10.8866 19.4845L10.8859 19.4838C8.30081 17.1397 6.19567 15.2299 4.73078 13.4389C3.27162 11.655 2.5 10.05 2.5 8.32422C2.5 5.52036 4.69614 3.32422 7.5 3.32422C9.08861 3.32422 10.6211 4.06619 11.6193 5.23839L12 5.68542L12.3807 5.23839C13.3789 4.06619 14.9114 3.32422 16.5 3.32422C19.3039 3.32422 21.5 5.52036 21.5 8.32422C21.5 10.05 20.7284 11.655 19.2691 13.4403C17.8065 15.2297 15.7058 17.1386 13.1265 19.4826L13.1148 19.4932L13.1137 19.4942L12.0013 20.4992L10.8866 19.4845Z" fill="white" stroke="#BEBEBE"/>
</svg>
