<svg width="25" height="24" viewBox="0 0 25 24" fill="none" xmlns="http://www.w3.org/2000/svg">
<path d="M12.4 6C13.5 6 14.4 6.9 14.4 8C14.4 9.1 13.5 10 12.4 10C11.3 10 10.4 9.1 10.4 8C10.4 6.9 11.3 6 12.4 6ZM12.4 15C15.1 15 18.2 16.29 18.4 17V18H6.40002V17.01C6.60002 16.29 9.70002 15 12.4 15ZM12.4 4C10.19 4 8.40002 5.79 8.40002 8C8.40002 10.21 10.19 12 12.4 12C14.61 12 16.4 10.21 16.4 8C16.4 5.79 14.61 4 12.4 4ZM12.4 13C9.73002 13 4.40002 14.34 4.40002 17V20H20.4V17C20.4 14.34 15.07 13 12.4 13Z" fill="#B8BFC6"/>
</svg>
