<svg width="25" height="24" viewBox="0 0 25 24" fill="none" xmlns="http://www.w3.org/2000/svg">
<path d="M12.8 5.9C13.96 5.9 14.9 6.84 14.9 8C14.9 9.16 13.96 10.1 12.8 10.1C11.64 10.1 10.7 9.16 10.7 8C10.7 6.84 11.64 5.9 12.8 5.9ZM12.8 14.9C15.77 14.9 18.9 16.36 18.9 17V18.1H6.70005V17C6.70005 16.36 9.83005 14.9 12.8 14.9ZM12.8 4C10.59 4 8.80005 5.79 8.80005 8C8.80005 10.21 10.59 12 12.8 12C15.01 12 16.8 10.21 16.8 8C16.8 5.79 15.01 4 12.8 4ZM12.8 13C10.13 13 4.80005 14.34 4.80005 17V20H20.8V17C20.8 14.34 15.47 13 12.8 13Z" fill="#2366AF"/>
</svg>
