<svg width="96" height="96" viewBox="0 0 96 96" fill="none" xmlns="http://www.w3.org/2000/svg">
<ellipse cx="47" cy="48" rx="47" ry="46" fill="#DDDDDD"/>
<path opacity="0.3" d="M58.3336 67.4453H33.8892V69.8898H58.3336V67.4453Z" fill="white"/>
<path opacity="0.3" d="M51.0003 25.8887H33.8892V28.3331H51.0003V25.8887Z" fill="white"/>
<path d="M58.3333 62.5556H33.8889V33.2222H51V28.3333H33.8889V25.8889H51V21.0244L33.8889 21C31.2 21 29 23.2 29 25.8889V69.8889C29 72.5778 31.2 74.7778 33.8889 74.7778H58.3333C61.0222 74.7778 63.2222 72.5778 63.2222 69.8889V57.6667H58.3333V62.5556ZM58.3333 69.8889H33.8889V67.4444H58.3333V69.8889Z" fill="white"/>
<path d="M63.2223 25.8887H58.3334V43.4153L52.0023 37.1087L51.0001 38.1109L48.5557 40.5553L51.0001 42.9998L60.7779 52.7776L68.1112 45.4442L73.0001 40.5553L69.5534 37.1087L68.1112 38.5509L63.2223 43.4153V25.8887Z" fill="white"/>
</svg>
