<svg width="94" height="92" viewBox="0 0 94 92" fill="none" xmlns="http://www.w3.org/2000/svg">
<ellipse cx="47" cy="46" rx="47" ry="46" fill="#0A5CA8"/>
<path opacity="0.3" d="M58.3336 65.4453H33.8892V67.8898H58.3336V65.4453Z" fill="white"/>
<path opacity="0.3" d="M51.0003 23.8887H33.8892V26.3331H51.0003V23.8887Z" fill="white"/>
<path d="M58.3333 60.5556H33.8889V31.2222H51V26.3333H33.8889V23.8889H51V19.0244L33.8889 19C31.2 19 29 21.2 29 23.8889V67.8889C29 70.5778 31.2 72.7778 33.8889 72.7778H58.3333C61.0222 72.7778 63.2222 70.5778 63.2222 67.8889V55.6667H58.3333V60.5556ZM58.3333 67.8889H33.8889V65.4444H58.3333V67.8889Z" fill="white"/>
<path d="M63.2223 23.8887H58.3334V41.4153L52.0023 35.1087L51.0001 36.1109L48.5557 38.5553L51.0001 40.9998L60.7779 50.7776L68.1112 43.4442L73.0001 38.5553L69.5534 35.1087L68.1112 36.5509L63.2223 41.4153V23.8887Z" fill="white"/>
</svg>
