<svg width="39" height="38" viewBox="0 0 39 38" fill="none" xmlns="http://www.w3.org/2000/svg">
<path d="M33.3809 30.0837V31.667H4.88086V30.0837L8.04753 26.917V17.417C8.04753 12.5087 11.2617 8.18616 15.9642 6.79283V6.33366C15.9642 5.49381 16.2978 4.68835 16.8917 4.09449C17.4856 3.50062 18.291 3.16699 19.1309 3.16699C19.9707 3.16699 20.7762 3.50062 21.37 4.09449C21.9639 4.68835 22.2975 5.49381 22.2975 6.33366V6.79283C27 8.18616 30.2142 12.5087 30.2142 17.417V26.917L33.3809 30.0837ZM22.2975 33.2503C22.2975 34.0902 21.9639 34.8956 21.37 35.4895C20.7762 36.0834 19.9707 36.417 19.1309 36.417C18.291 36.417 17.4856 36.0834 16.8917 35.4895C16.2978 34.8956 15.9642 34.0902 15.9642 33.2503" fill="white"/>
</svg>
