<svg width="32" height="40" viewBox="0 0 64 80" fill="none" xmlns="http://www.w3.org/2000/svg">
<path d="M32 0C28.688 0 26 2.688 26 6V8.78125C15.6527 11.4484 8 20.8192 8 32V52H56V32C56 20.8192 48.3473 11.4484 38 8.78125V6C38 2.688 35.312 0 32 0ZM0 60V68H25.0781C24.3738 69.2155 24.0019 70.5951 24 72C24 74.1217 24.8429 76.1566 26.3431 77.6569C27.8434 79.1571 29.8783 80 32 80C34.1217 80 36.1566 79.1571 37.6569 77.6569C39.1571 76.1566 40 74.1217 40 72C39.9957 70.5944 39.6212 69.2148 38.9141 68H64V60H0Z" fill="white"/>
</svg>
