<svg width="100" height="100" viewBox="0 0 100 100" fill="none" xmlns="http://www.w3.org/2000/svg">
<circle cx="50" cy="50" r="50" fill="#0A5CA8"/>
<path d="M50 77C53.025 77 55.5 74.5077 55.5 71.4615H44.5C44.5 74.5077 46.975 77 50 77ZM66.5 60.3846V46.5385C66.5 38.0369 62.0175 30.92 54.125 29.0369V27.1538C54.125 24.8554 52.2825 23 50 23C47.7175 23 45.875 24.8554 45.875 27.1538V29.0369C38.01 30.92 33.5 38.0092 33.5 46.5385V60.3846L28 65.9231V68.6923H72V65.9231L66.5 60.3846ZM61 63.1538H39V46.5385C39 39.6708 43.1525 34.0769 50 34.0769C56.8475 34.0769 61 39.6708 61 46.5385V63.1538Z" fill="white"/>
</svg>
