<svg width="24" height="24" viewBox="0 0 24 24" fill="none" xmlns="http://www.w3.org/2000/svg">
<path d="M5.5 18.7693C5.35833 18.7693 5.23958 18.7213 5.14375 18.6253C5.04792 18.5293 5 18.4103 5 18.2685C5 18.1267 5.04792 18.008 5.14375 17.9125C5.23958 17.817 5.35833 17.7693 5.5 17.7693H6.6155V9.84625C6.6155 8.53975 7.02892 7.39067 7.85575 6.399C8.68275 5.40733 9.73083 4.78975 11 4.54625V4C11 3.72217 11.097 3.48608 11.291 3.29175C11.485 3.09725 11.7206 3 11.9978 3C12.2749 3 12.5113 3.09725 12.7067 3.29175C12.9022 3.48608 13 3.72217 13 4V4.54625C14.2692 4.78975 15.3173 5.40733 16.1443 6.399C16.9711 7.39067 17.3845 8.53975 17.3845 9.84625V17.7693H18.5C18.6417 17.7693 18.7604 17.8173 18.8562 17.9133C18.9521 18.0091 19 18.128 19 18.27C19 18.4118 18.9521 18.5305 18.8562 18.626C18.7604 18.7215 18.6417 18.7693 18.5 18.7693H5.5ZM11.9965 21.3845C11.5513 21.3845 11.1714 21.2263 10.8568 20.91C10.5419 20.5937 10.3845 20.2134 10.3845 19.7693H13.6155C13.6155 20.2168 13.4569 20.5978 13.1398 20.9125C12.8228 21.2272 12.4417 21.3845 11.9965 21.3845ZM7.6155 17.7693H16.3845V9.84625C16.3845 8.63075 15.9576 7.59608 15.1038 6.74225C14.2499 5.88842 13.2153 5.4615 12 5.4615C10.7847 5.4615 9.75008 5.88842 8.89625 6.74225C8.04242 7.59608 7.6155 8.63075 7.6155 9.84625V17.7693Z" fill="#6B6B6B"/>
</svg>
