<svg width="25" height="24" viewBox="0 0 25 24" fill="none" xmlns="http://www.w3.org/2000/svg">
<path d="M15.955 14.2549H15.165L14.885 13.9849C15.865 12.8449 16.455 11.3649 16.455 9.75488C16.455 6.16488 13.545 3.25488 9.95499 3.25488C6.36499 3.25488 3.45499 6.16488 3.45499 9.75488C3.45499 13.3449 6.36499 16.2549 9.95499 16.2549C11.565 16.2549 13.045 15.6649 14.185 14.6849L14.455 14.9649V15.7549L19.455 20.7449L20.945 19.2549L15.955 14.2549ZM9.95499 14.2549C7.46499 14.2549 5.45499 12.2449 5.45499 9.75488C5.45499 7.26488 7.46499 5.25488 9.95499 5.25488C12.445 5.25488 14.455 7.26488 14.455 9.75488C14.455 12.2449 12.445 14.2549 9.95499 14.2549Z" fill="#2366AF"/>
</svg>
