<svg width="25" height="24" viewBox="0 0 25 24" fill="none" xmlns="http://www.w3.org/2000/svg">
<path d="M16.555 14.2549H15.765L15.485 13.9849C16.465 12.8449 17.055 11.3649 17.055 9.75488C17.055 6.16488 14.145 3.25488 10.555 3.25488C6.96499 3.25488 4.05499 6.16488 4.05499 9.75488C4.05499 13.3449 6.96499 16.2549 10.555 16.2549C12.165 16.2549 13.645 15.6649 14.785 14.6849L15.055 14.9649V15.7549L20.055 20.7449L21.545 19.2549L16.555 14.2549ZM10.555 14.2549C8.06499 14.2549 6.05499 12.2449 6.05499 9.75488C6.05499 7.26488 8.06499 5.25488 10.555 5.25488C13.045 5.25488 15.055 7.26488 15.055 9.75488C15.055 12.2449 13.045 14.2549 10.555 14.2549Z" fill="#B8BFC6"/>
</svg>
